<?xml version="1.0" encoding="UTF-8" standalone="no"?>
<!-- Created with Inkscape (http://www.inkscape.org/) -->

<svg
   xmlns:dc="http://purl.org/dc/elements/1.1/"
   xmlns:cc="http://creativecommons.org/ns#"
   xmlns:rdf="http://www.w3.org/1999/02/22-rdf-syntax-ns#"
   xmlns:svg="http://www.w3.org/2000/svg"
   xmlns="http://www.w3.org/2000/svg"
   xmlns:xlink="http://www.w3.org/1999/xlink"
   xmlns:sodipodi="http://sodipodi.sourceforge.net/DTD/sodipodi-0.dtd"
   xmlns:inkscape="http://www.inkscape.org/namespaces/inkscape"
   width="192"
   height="192"
   viewBox="0 0 192 192"
   id="svg2"
   version="1.1"
   inkscape:version="0.91 r13725"
   sodipodi:docname="icon.svg"
   inkscape:export-filename="/home/michi/Projekte/Android/Amido/app/src/main/res/icon.png"
   inkscape:export-xdpi="90"
   inkscape:export-ydpi="90">
  <defs
     id="defs4">
    <linearGradient
       inkscape:collect="always"
       id="linearGradient4362">
      <stop
         style="stop-color:#050301;stop-opacity:1"
         offset="0"
         id="stop4364" />
      <stop
         style="stop-color:#ffffff;stop-opacity:1"
         offset="1"
         id="stop4366" />
    </linearGradient>
    <inkscape:path-effect
       effect="spiro"
       id="path-effect4354"
       is_visible="true" />
    <linearGradient
       inkscape:collect="always"
       xlink:href="#linearGradient4362"
       id="linearGradient4368"
       x1="67.34333"
       y1="1024.1881"
       x2="63.783825"
       y2="1005.081"
       gradientUnits="userSpaceOnUse"
       gradientTransform="translate(39.39595,-7.5761438)" />
  </defs>
  <sodipodi:namedview
     id="base"
     pagecolor="#ffffff"
     bordercolor="#666666"
     borderopacity="1.0"
     inkscape:pageopacity="0.0"
     inkscape:pageshadow="2"
     inkscape:zoom="2.8"
     inkscape:cx="-10.572552"
     inkscape:cy="103.02933"
     inkscape:document-units="px"
     inkscape:current-layer="layer2"
     showgrid="true"
     units="px"
     inkscape:window-width="1600"
     inkscape:window-height="836"
     inkscape:window-x="0"
     inkscape:window-y="27"
     inkscape:window-maximized="1"
     inkscape:snap-grids="false">
    <inkscape:grid
       type="xygrid"
       id="grid4136" />
  </sodipodi:namedview>
  <metadata
     id="metadata7">
    <rdf:RDF>
      <cc:Work
         rdf:about="">
        <dc:format>image/svg+xml</dc:format>
        <dc:type
           rdf:resource="http://purl.org/dc/dcmitype/StillImage" />
        <dc:title />
      </cc:Work>
    </rdf:RDF>
  </metadata>
  <g
     inkscape:groupmode="layer"
     id="layer2"
     inkscape:label="Ebene 2">
    <path
       style="opacity:1;fill:#eeeeee;fill-opacity:1;stroke:#a7a7a7;stroke-width:2;stroke-linecap:round;stroke-linejoin:round;stroke-miterlimit:4;stroke-dasharray:none;stroke-opacity:1"
       d="m 2.5,24.142857 c 48.070594,-10.049239 91.13213,-5.906149 133.57141,0 -12.48203,71.162769 -3.54853,108.360993 0,148.214263 -43.173904,8.99933 -87.542124,10.03655 -133.57141,0 4.2105866,-45.19417 6.1848299,-92.624679 0,-148.214263 z"
       id="rect4157"
       inkscape:connector-curvature="0"
       sodipodi:nodetypes="ccccc" />
  </g>
  <g
     inkscape:label="Ebene 1"
     inkscape:groupmode="layer"
     id="layer1"
     transform="translate(0,-860.36216)">
    <g
       id="g4337"
       transform="matrix(0.84547721,0,0,0.79233608,-3.7972376,186.63619)"
       style="fill:#9c95f0;fill-opacity:1;stroke:#303382;stroke-opacity:1">
      <path
         inkscape:connector-curvature="0"
         d="m 31.590089,888.68561 c 0.186168,1.6035 0.535826,3.18179 0.863317,4.76081 0.529705,2.37829 1.11771,4.74465 1.911764,7.0497 0.859435,2.37338 2.051631,4.59633 3.343397,6.75705 1.222612,2.00238 2.385095,4.03393 3.785575,5.91883 1.319473,1.5514 2.785466,2.97482 4.334259,4.29534 1.091505,0.94384 2.240673,1.81606 3.360874,2.72489 0.449937,0.48089 1.051485,0.77908 1.54793,1.19889 0.01262,0.0107 0.602268,0.58491 0.636966,0.61868 0.45861,0.52158 0.869559,1.05664 1.456224,1.43975 0.06726,0.0382 0.134514,0.0764 0.201771,0.11463 0,0 -7.731242,4.93196 -7.731242,4.93196 l 0,0 c -0.06697,-0.0546 -0.13395,-0.10914 -0.200925,-0.1637 -0.550649,-0.47364 -1.006159,-1.02049 -1.482734,-1.5647 -0.639245,-0.64727 -1.404222,-1.16206 -2.044731,-1.8111 -1.098428,-0.93586 -2.242547,-1.81826 -3.298479,-2.8032 -1.511803,-1.42294 -2.947789,-2.93745 -4.274963,-4.53358 -1.436509,-1.89881 -2.610125,-3.97 -3.858098,-5.99507 -1.26479,-2.24301 -2.46256,-4.52636 -3.334444,-6.95669 -0.797498,-2.32622 -1.611753,-4.6519 -2.084094,-7.0718 -0.35313,-1.55148 -0.756128,-3.09737 -1.227104,-4.61638 0,0 8.094737,-4.29431 8.094737,-4.29431 z"
         id="path4301"
         style="opacity:1;fill:#9c95f0;fill-opacity:1;stroke:#303382;stroke-width:2;stroke-linecap:round;stroke-linejoin:round;stroke-miterlimit:4;stroke-dasharray:none;stroke-opacity:1" />
      <path
         inkscape:connector-curvature="0"
         d="m 32.669105,939.04559 c 0.344319,2.46343 1.372929,4.74209 2.417388,6.97394 1.480959,2.96056 3.041236,5.88352 4.692713,8.75253 0.246439,0.4331 0.492287,0.86653 0.739317,1.2993 0.691298,1.21106 0.944363,1.69786 1.73623,2.86746 0.857702,1.26684 1.829491,2.45357 2.77502,3.65446 1.441462,1.7994 2.880661,3.6273 4.553232,5.22039 1.097939,1.04917 2.387655,1.83054 3.686155,2.59671 0.777848,0.6126 1.568828,1.21614 2.140061,2.03463 0.202601,0.32988 0.111528,0.17248 0.276031,0.47054 0,0 -7.998715,4.52147 -7.998715,4.52147 l 0,0 c -0.08384,-0.23977 -0.03366,-0.11394 -0.155271,-0.37557 -0.454124,-0.72725 -1.140793,-1.25723 -1.813535,-1.7733 -1.311568,-0.82788 -2.554905,-1.7562 -3.648717,-2.86282 -1.638854,-1.6706 -3.023146,-3.5739 -4.439493,-5.43205 -1.891485,-2.5581 -3.735828,-5.16549 -5.293327,-7.94335 -1.5528,-2.93914 -3.099891,-5.8808 -4.627308,-8.83309 -0.716488,-1.36843 -1.434762,-2.73224 -2.023391,-4.16231 -1.112217,-2.70212 0.204724,0.35805 -0.753558,-2.00292 -0.08702,-0.21441 -0.191535,-0.42129 -0.287303,-0.63193 0,0 8.024471,-4.37409 8.024471,-4.37409 z"
         id="path4303"
         style="opacity:1;fill:#9c95f0;fill-opacity:1;stroke:#303382;stroke-width:2;stroke-linecap:round;stroke-linejoin:round;stroke-miterlimit:4;stroke-dasharray:none;stroke-opacity:1" />
      <path
         inkscape:connector-curvature="0"
         d="m 20.911277,1046.2948 c 0.244848,-1.0032 0.400323,-2.03 0.568277,-3.0495 0.159028,-1.1541 0.187938,-2.3198 0.301466,-3.4787 0.230103,-1.5608 0.412039,-3.1244 0.572637,-4.6935 0.148652,-1.4831 0.532819,-2.9257 0.815041,-4.3853 0.339188,-1.7915 0.633956,-3.5901 0.843906,-5.4013 0.125727,-1.5004 0.503527,-2.9473 0.978465,-4.3699 0.465947,-1.4376 1.02272,-2.8423 1.525132,-4.2672 0.540935,-1.7087 1.015864,-3.4364 1.641796,-5.1167 0.605525,-1.501 1.326306,-2.953 2.018845,-4.4155 0.657566,-1.4695 1.309655,-2.9412 2.054132,-4.3692 0.789245,-1.4764 1.692274,-2.89411 2.647445,-4.26846 1.07024,-1.52094 2.222428,-2.98043 3.303755,-4.49309 1.045505,-1.57126 2.076345,-3.14834 3.187569,-4.67433 1.065078,-1.52698 2.348653,-2.88289 3.629039,-4.22821 1.625043,-1.69544 3.12013,-3.50417 4.554303,-5.36177 1.622631,-2.2536 3.491745,-4.30942 5.318726,-6.39591 2.061934,-2.30403 4.227933,-4.5121 6.37217,-6.73898 1.408309,-1.49025 0.738875,-0.77115 2.010886,-2.1549 0,0 7.963578,-3.32362 7.963578,-3.32362 l 0,0 c -1.384891,1.41993 -0.674407,0.68443 -2.130087,2.20782 -2.100833,2.22092 -4.224613,4.41999 -6.292125,6.6724 -1.83422,2.035 -3.625293,4.11224 -5.273125,6.30261 -1.390029,1.87516 -2.817047,3.72053 -4.430297,5.41223 -1.241916,1.32765 -2.482638,2.66567 -3.602751,4.09756 -1.116567,1.51905 -2.221862,3.04402 -3.189197,4.66524 -1.079132,1.50415 -2.207351,2.96827 -3.27457,4.48142 -0.976143,1.31628 -1.856426,2.70842 -2.652497,4.14005 -0.765679,1.41454 -1.495106,2.85254 -2.109487,4.33984 -0.659003,1.4643 -1.359144,2.9088 -2.034081,4.365 -0.679852,1.6479 -1.250992,3.337 -1.659497,5.0738 -0.452949,1.4435 -0.993493,2.847 -1.503002,4.2697 -0.49684,1.3693 -0.860568,2.7693 -1.0814,4.2107 -0.240126,1.8144 -0.567371,3.6163 -0.81867,5.4291 -0.203311,1.4659 -0.59449,2.8907 -0.816202,4.3536 -0.250783,1.5354 -0.319511,3.0956 -0.505254,4.6396 -0.145801,1.1621 -0.157855,2.3266 -0.261577,3.4928 -0.128862,1.0116 -0.417167,2.0005 -0.410462,3.0259 0,0 -8.262887,4.0067 -8.262887,4.0067 z"
         id="path4311"
         style="opacity:1;fill:#9c95f0;fill-opacity:1;stroke:#303382;stroke-width:2;stroke-linecap:round;stroke-linejoin:round;stroke-miterlimit:4;stroke-dasharray:none;stroke-opacity:1" />
      <path
         inkscape:connector-curvature="0"
         d="m 67.500474,908.94845 c 0.89198,0.0536 1.787037,0.0338 2.680361,0.0398 1.065285,-0.19528 2.159074,-0.17654 3.220042,-0.38035 0.989572,-0.17324 1.952266,-0.43162 2.948608,-0.5685 1.090211,-0.15597 2.19234,-0.0981 3.289332,-0.10181 1.32266,0.069 2.62844,-0.0635 3.940526,-0.20362 1.122313,-0.0375 2.217651,-0.28203 3.327456,-0.4294 1.431049,0.13983 2.866675,0.20014 4.303366,0.24282 1.210362,-0.0882 2.414916,-0.24031 3.627466,-0.29907 0.876769,-0.10173 1.787475,0.0568 2.64798,-0.1471 1.147425,-0.16926 2.315787,-0.17641 3.474059,-0.20278 1.14789,0.0389 2.27056,-0.10665 3.40256,-0.26399 0.81753,-0.11641 1.64267,-0.14954 2.4672,-0.16463 1.03069,10e-4 2.06115,0.0306 3.09196,0.0393 1.16794,-0.0424 2.35051,0.0791 3.50951,-0.092 0.88548,-0.11348 1.78054,-0.33668 2.67168,-0.20176 0.12084,0.0213 0.24499,0.0287 0.36253,0.064 0.2738,0.11686 0.40799,0.18537 0.69255,0.26421 0.46582,0.12907 0.95008,0.16601 1.4286,0.21575 1.22481,0.0981 2.45436,0.10526 3.68233,0.10224 0.93523,-1.8e-4 1.87012,-0.0229 2.80528,-0.0319 0.69165,-0.005 1.38305,-0.009 2.07465,-0.005 0.87459,-0.003 1.7488,0.0232 2.62336,0.0254 1.05676,0.004 2.11362,10e-4 3.17038,-0.007 0.75227,-0.004 1.50418,-0.0227 2.25646,-0.0235 0.64831,0.0472 1.27066,0.24702 1.92486,0.30984 0.95083,0.0973 1.89592,-0.0952 2.8445,-0.16699 0.95591,-0.0778 1.91419,-0.1146 2.87287,-0.13151 0.68513,0.0802 1.29962,-0.19943 1.9666,-0.2931 0.52924,-0.0669 1.06106,-0.0842 1.59351,-0.0993 0.34641,-0.0117 0.0272,0.0439 0.27417,-0.13662 0.0128,-0.009 0.33967,-0.13387 0.35314,-0.13904 0,0 -7.26241,5.64088 -7.26241,5.64088 l 0,0 c -0.27339,0.077 -0.49935,0.10834 -0.78134,0.0619 -0.49577,0.0201 -0.99111,0.0747 -1.47778,0.17208 -0.67012,0.14133 -1.32859,0.18461 -2.01466,0.15325 -0.92653,0.0181 -1.85318,0.0516 -2.77616,0.13879 -1.00982,0.10221 -2.02145,0.22521 -3.03378,0.0679 -0.62547,-0.0927 -1.23695,-0.26907 -1.87512,-0.20779 -0.7307,-7.6e-4 -1.461,-0.0195 -2.19168,-0.0235 -1.05065,-0.008 -2.1014,-0.0103 -3.15206,-0.007 -0.89778,0.002 -1.79524,0.0277 -2.69305,0.0257 -0.68811,0.005 -1.37602,10e-4 -2.06419,-8e-4 -0.91031,-0.005 -1.82043,-0.0232 -2.73064,-0.0345 -1.24494,-0.0258 -2.49267,-0.0445 -3.73155,-0.18142 -0.85832,-0.10375 -1.67734,-0.34664 -2.53176,-0.43705 -0.85306,0.0682 -1.7001,0.18885 -2.55276,0.26061 -1.16501,0.027 -2.33061,-0.0236 -3.49594,-0.0105 -1.06375,0.008 -2.1271,0.0254 -3.190159,0.066 -0.79249,0.0331 -1.582847,0.0965 -2.3696,0.19926 -1.122589,0.12433 -2.245122,0.13192 -3.373809,0.14263 -1.188117,0.056 -2.371763,0.1484 -3.545607,0.34665 -0.876055,0.01 -1.752647,0.0137 -2.627455,0.0674 -1.192459,0.0831 -2.386558,0.20016 -3.583047,0.16275 -1.437948,-0.0571 -2.888959,-0.19526 -4.323407,-0.0397 -1.096012,0.15062 -2.191008,0.29677 -3.296287,0.36298 -1.320993,0.1127 -2.639772,0.1412 -3.965699,0.12785 -1.095034,0.0209 -2.191859,0.0756 -3.273728,0.25708 -0.980781,0.18307 -1.947817,0.44149 -2.943332,0.54267 -1.103221,0.10358 -2.20432,0.2497 -3.311806,0.28993 -0.92992,0.006 -1.861172,-0.0119 -2.789967,0.0398 0,0 7.430887,-5.39886 7.430887,-5.39886 z"
         id="path4315"
         style="opacity:1;fill:#9c95f0;fill-opacity:1;stroke:#303382;stroke-width:2;stroke-linecap:round;stroke-linejoin:round;stroke-miterlimit:4;stroke-dasharray:none;stroke-opacity:1" />
      <path
         inkscape:connector-curvature="0"
         d="m 85.518661,895.47133 c 0.07431,1.02303 0.183324,2.04128 0.401806,3.04417 0.309303,1.15842 0.590913,2.31352 0.771866,3.50007 0.133535,1.21199 0.171043,2.43427 0.185827,3.65301 0.01622,1.0242 -0.02131,2.04803 0.09107,3.06761 0.132259,1.00007 0.363516,1.98057 0.483093,2.98288 0.09645,1.10126 0.137058,2.20718 0.145727,3.31241 0.01512,0.96168 0.01007,1.92337 0.0193,2.88513 -0.03104,0.9066 0.108084,1.80913 0.306754,2.69098 0.295249,1.06899 0.509995,2.15735 0.631711,3.25932 0.116557,0.99012 0.377803,1.95333 0.617859,2.91841 0.238734,0.79968 0.3944,1.61885 0.559739,2.43539 0.138793,0.57128 0.287882,1.14051 0.36874,1.72346 0.03018,0.3293 0.03945,0.6599 0.06161,0.98982 0,0 -8.181611,4.18542 -8.181611,4.18542 l 0,0 c 0.01065,-0.30827 0.01112,-0.61633 -0.01098,-0.92425 -0.03737,-0.55722 -0.118609,-1.10969 -0.273982,-1.64752 -0.203572,-0.80359 -0.19198,-1.655 -0.473608,-2.44538 -0.287623,-1.00203 -0.516016,-2.02486 -0.670676,-3.05579 -0.09695,-1.06867 -0.244996,-2.13164 -0.612958,-3.14636 -0.21001,-0.94089 -0.414019,-1.89548 -0.410424,-2.8641 0.01209,-0.96497 0.01288,-1.92986 0.01899,-2.89486 -0.009,-1.076 0.0062,-2.15439 -0.100669,-3.22671 -0.112358,-1.0035 -0.338616,-1.98106 -0.494181,-2.97595 -0.129966,-1.05562 -0.14195,-2.10523 -0.107908,-3.16929 -0.0041,-1.18709 0.01169,-2.37654 -0.119685,-3.55867 -0.137168,-1.16772 -0.431985,-2.28902 -0.746569,-3.41952 -0.242239,-1.00007 -0.361971,-2.01711 -0.555584,-3.02537 0,0 8.094738,-4.29431 8.094738,-4.29431 z"
         id="path4317"
         style="opacity:1;fill:#9c95f0;fill-opacity:1;stroke:#303382;stroke-width:2;stroke-linecap:round;stroke-linejoin:round;stroke-miterlimit:4;stroke-dasharray:none;stroke-opacity:1" />
      <path
         inkscape:connector-curvature="0"
         d="m 123.36873,896.25237 c -0.0412,1.88913 0.29942,3.77816 0.59476,5.63986 0.31087,2.17447 0.74645,4.3285 1.18105,6.4809 0.38163,1.89302 0.81702,3.77138 1.17191,5.66978 0.28985,1.44842 0.5471,2.90349 0.74329,4.36763 0.16869,1.08392 0.36813,2.15875 0.47088,3.25153 0.0553,0.92584 0.0809,1.85302 0.0953,2.78029 0.0351,0.62556 0.009,1.25215 0.0247,1.87804 0.0146,0.39221 0.0246,0.78508 0.0191,1.1776 0.004,0.31556 0.003,0.63103 0.009,0.94653 -0.0135,0.3103 0.004,0.62085 -0.002,0.93106 0.003,0.17673 4.3e-4,0.0923 0.007,0.25339 0,0 -8.22435,4.19052 -8.22435,4.19052 l 0,0 c 0.006,-0.16663 0.004,-0.0798 0.007,-0.26045 -0.006,-0.30951 0.0115,-0.61935 -0.002,-0.92893 0.006,-0.31866 0.005,-0.63731 0.009,-0.95604 -0.005,-0.39994 0.006,-0.80024 0.0215,-1.19983 0.0173,-0.63349 -0.004,-1.26772 0.0299,-1.90093 0.009,-0.91237 0.0235,-1.82594 -0.0322,-2.73722 -0.0655,-1.09512 -0.20755,-2.18249 -0.38295,-3.26528 -0.1228,-1.46467 -0.38731,-2.90141 -0.66062,-4.34356 -0.32106,-1.90941 -0.57677,-3.82977 -1.0162,-5.71853 -0.48377,-2.15735 -0.90484,-4.33204 -1.2065,-6.52265 -0.28447,-1.86903 -0.54286,-3.74074 -1.0234,-5.57291 0,0 8.16603,-4.1608 8.16603,-4.1608 z"
         id="path4319"
         style="opacity:1;fill:#9c95f0;fill-opacity:1;stroke:#303382;stroke-width:2;stroke-linecap:round;stroke-linejoin:round;stroke-miterlimit:4;stroke-dasharray:none;stroke-opacity:1" />
      <path
         inkscape:connector-curvature="0"
         d="m 80.520555,937.63365 c -0.03867,0.59671 -0.03332,1.19615 -0.0027,1.79313 0.01232,0.36554 0.0055,0.73124 0.01273,1.09681 -0.0028,0.36714 3.28e-4,0.73398 -0.0098,1.10108 -0.03987,0.70486 -0.03417,1.41143 -0.03423,2.11716 0.01024,0.6447 0.01574,1.2892 0.01235,1.93407 -0.01267,0.62848 0.0058,1.25668 0.005,1.88511 -0.0013,0.53025 0.01004,1.06045 0.01036,1.59071 -0.0075,0.40611 0.0184,0.8115 0.01329,1.21759 -0.009,0.41142 -4.46e-4,0.82271 -0.0095,1.23419 -0.01595,0.61434 -0.021,1.22887 -0.02458,1.84339 -0.01201,0.65544 0.009,1.31053 0.0093,1.96588 0.0012,0.64044 -0.01773,1.281 -0.0011,1.92129 -0.002,0.56339 0.01004,1.12659 0.0064,1.68993 0.01146,0.47163 5.7e-4,0.94331 0.01343,1.41492 -0.01071,0.49931 2.87e-4,0.99859 -0.01965,1.49762 -0.01822,0.7289 -0.01499,1.45813 -0.01426,2.18721 0.0028,0.52957 0.007,1.05972 0.04553,1.58814 0.0031,0.0349 0.0062,0.0698 0.0092,0.10467 0,0 -8.227717,4.19223 -8.227717,4.19223 l 0,0 c 0.0031,-0.038 0.0062,-0.0761 0.0092,-0.11409 0.03691,-0.544 0.04334,-1.08947 0.04553,-1.63454 7.32e-4,-0.72422 0.0041,-1.44862 -0.01426,-2.17268 -0.02051,-0.49232 -0.0086,-0.98496 -0.01965,-1.47759 0.01264,-0.47618 0.0022,-0.95241 0.01343,-1.4286 -0.0036,-0.56553 0.0085,-1.13092 0.0064,-1.69649 0.0162,-0.63994 -0.0019,-1.28011 -0.0011,-1.92018 3.91e-4,-0.65853 0.02129,-1.3168 0.0093,-1.97541 -0.0036,-0.60616 -0.0085,-1.21235 -0.02458,-1.81834 -0.0092,-0.40824 -4.45e-4,-0.8163 -0.0095,-1.22447 -0.0052,-0.4106 0.02088,-0.82053 0.01329,-1.23114 3.26e-4,-0.53377 0.01163,-1.0675 0.01036,-1.60127 -8.04e-4,-0.63014 0.01766,-1.26005 0.005,-1.89023 -0.0034,-0.64906 0.0022,-1.29776 0.01235,-1.94667 -6e-5,-0.69408 0.0064,-1.38911 -0.03423,-2.08227 -0.01037,-0.36375 -0.0069,-0.72726 -0.0098,-1.09106 0.0071,-0.36989 5.18e-4,-0.73991 0.01273,-1.10978 0.02906,-0.59608 0.03768,-1.19467 -0.0027,-1.79038 0,0 8.183967,-4.16994 8.183967,-4.16994 z"
         id="path4323"
         style="opacity:1;fill:#9c95f0;fill-opacity:1;stroke:#303382;stroke-width:2;stroke-linecap:round;stroke-linejoin:round;stroke-miterlimit:4;stroke-dasharray:none;stroke-opacity:1" />
      <path
         inkscape:connector-curvature="0"
         d="m 87.552215,936.92274 c 1.252274,0.46551 2.618515,0.51883 3.939745,0.59947 1.53452,-0.005 3.052901,0.14975 4.579669,0.27664 1.952438,0.29159 3.923718,0.41166 5.895161,0.47013 1.74736,0.053 3.4957,0.0593 5.24371,0.0706 1.59597,-8.1e-4 3.19178,-0.0296 4.78769,-0.0415 1.39376,-0.0244 2.78685,0.003 4.18023,0.0329 1.93045,0.0487 3.86136,0.004 5.79187,-0.0141 1.39058,0.0599 2.75826,-0.19155 4.14362,-0.24886 1.60765,-0.0542 3.21553,-0.091 4.82373,-0.12248 1.15227,-0.0178 2.30459,-0.0224 3.45692,-0.0321 0.76118,-0.0186 1.52202,-0.0181 2.2833,-0.0131 0.98616,0.0151 1.97242,0.0188 2.95867,0.0244 1.03898,-0.0672 2.03361,-0.32832 3.04596,-0.5437 0.63883,-0.35527 1.33297,-0.4816 2.05127,-0.53667 0.54901,-0.0383 1.10781,0.0276 1.50674,-0.40748 -2.56375,1.47072 -5.12408,2.94743 -7.69127,4.41215 -0.06,0.0342 0.10908,-0.0856 0.16888,-0.12023 2.67186,-1.54696 5.33657,-3.10658 8.02529,-4.62404 0.1232,-0.0695 0.44861,-0.0466 0.58576,-0.0421 0.20881,-0.34686 0.53361,-0.32715 0.89383,-0.35926 0.32557,0.007 0.6502,0.003 0.97584,0.017 0.27419,-0.49701 0.76487,0.41319 0.87108,0.65866 0.10476,0.31656 0.10677,0.65308 0.11554,0.9828 0.0263,0.4724 -0.0438,0.91451 -0.16827,1.36853 -0.46036,0.97556 -0.57274,2.0478 -0.71877,3.10372 -0.17289,1.40478 -0.24593,2.81818 -0.26778,4.23255 0.0102,1.19656 -0.0297,2.39227 -0.0465,3.58851 0.0417,1.39386 -0.0187,2.779 -0.12714,4.16788 -0.0931,1.02723 -0.1364,2.0568 -0.15218,3.08777 0.0137,0.65311 0.007,1.30641 0.004,1.95959 -0.0154,0.6055 0.0233,1.21061 0.0119,1.81586 -0.0929,0.48825 -0.22073,0.9633 -0.29381,1.4553 -0.19045,0.59122 -0.40083,1.18444 -0.66246,1.74817 -0.22694,0.50127 -0.41788,1.01449 -0.67133,1.50388 -2.10576,3.17717 -5.91717,4.88781 -9.53177,5.02881 -0.35679,0.006 -0.71349,0.004 -1.0703,0.006 0,0 7.42672,-5.39888 7.42672,-5.39888 l 0,0 c 0.3315,2.4e-4 0.66408,-0.007 0.99332,-0.0494 0.27646,-0.0411 0.55961,-0.0927 0.81393,-0.21685 0.0867,-0.0423 0.33109,-0.19821 0.24778,-0.14956 -7.66335,4.47579 -10.35586,5.30288 -7.31545,4.34563 0.46798,-0.28899 0.58059,-0.79861 0.78977,-1.27552 0.0826,-0.17969 0.20459,-0.33984 0.28362,-0.52114 0.1536,-0.35235 0.23519,-0.74545 0.40853,-1.09038 0.22009,-0.41568 0.11932,-0.93779 0.33943,-1.36588 0.23457,-0.50353 0.026,-1.15046 0.0934,-1.68942 -0.004,-0.66843 -0.0122,-1.3377 0.0324,-2.00511 0.0382,-1.06363 0.0953,-2.12797 0.21396,-3.18592 0.14588,-1.36613 0.25088,-2.7308 0.19008,-4.10653 -0.0183,-1.19761 -0.0677,-2.39563 -0.002,-3.59291 0.0598,-1.45033 0.13268,-2.90146 0.31022,-4.34312 0.0138,-0.14082 0.13245,-1.32904 0.14344,-1.50968 0.0351,-0.57742 -0.003,-1.15324 0.25916,-1.68981 0.18479,-0.33971 0.29205,-0.64835 0.25134,-1.03737 0.007,-0.23961 0.007,-0.47932 0.0128,-0.71901 0.22854,0.19161 0.0868,0.49166 -0.23007,0.31402 -0.28992,0.018 -0.58922,0.0299 -0.86074,0.14218 -0.31229,0.12573 -0.52825,0.40452 -0.89819,0.33596 -0.0516,0.0273 -0.84051,0.50788 -0.41247,0.26291 20.38491,-11.66638 -0.31326,0.0599 -0.51318,0.27175 -0.54903,0.0602 -1.09574,0.0774 -1.64364,0.16131 -0.66943,0.14533 -1.29323,0.43243 -1.96902,0.54782 -1.02629,0.21234 -2.06871,0.35809 -3.11873,0.36462 -1.00862,0.006 -2.01725,0.01 -3.02579,0.024 -0.74797,0.004 -1.49544,0.004 -2.24325,-0.0165 -1.12338,-0.0116 -2.24687,-0.0184 -3.3703,-0.0188 -1.59135,3e-4 -3.18535,0.0187 -4.7719,0.15208 -1.38398,0.13812 -2.7655,0.25837 -4.15864,0.18136 -1.91761,-0.0186 -3.83557,-0.0629 -5.75313,-0.014 -1.42439,0.0289 -2.84853,0.0576 -4.27327,0.0356 -1.56152,-0.009 -3.12294,-0.0335 -4.68449,-0.0366 -1.765415,0.005 -3.532161,0.0102 -5.295607,-0.0864 -1.975429,-0.14337 -3.947721,-0.32124 -5.922078,-0.47798 -1.53035,-0.10474 -3.061436,-0.17997 -4.592932,-0.26436 -1.417248,-0.1205 -2.827232,-0.28764 -4.227856,-0.53385 0,0 7.534368,-5.24999 7.534368,-5.24999 z"
         id="path4325"
         style="opacity:1;fill:#9c95f0;fill-opacity:1;stroke:#303382;stroke-width:2;stroke-linecap:round;stroke-linejoin:round;stroke-miterlimit:4;stroke-dasharray:none;stroke-opacity:1" />
      <path
         inkscape:connector-curvature="0"
         d="m 92.802817,963.11923 c 0.700955,-0.39051 1.55648,-0.43236 2.342518,-0.51184 0.801284,-0.028 1.596836,-0.17676 2.365058,-0.40659 0.963307,-0.33056 1.943709,-0.50379 2.953817,-0.61407 1.20702,-0.0838 2.41836,-0.0884 3.62784,-0.088 1.17807,-0.007 2.35579,-0.0127 3.53369,0.009 1.3151,0.008 2.63016,-0.002 3.94526,-2.5e-4 1.08774,-0.009 2.17548,-0.0137 3.26321,-0.0247 0.72335,-0.0275 1.447,-0.0158 2.17054,-0.0105 1.04038,0.0182 2.08094,0.0223 3.12145,0.0306 1.11008,0.006 2.21031,0.19551 3.31806,0.27682 0.78451,0.0452 1.57043,0.0479 2.35595,0.0487 0.71737,-0.0543 1.39832,0.17742 2.1064,0.26832 0.94874,0.0256 1.87658,0.19422 2.81598,0.31227 0.85259,0.10067 1.71126,0.12408 2.56887,0.1329 0.65584,0.0354 1.32204,-0.094 1.9579,0.0873 0.61166,0.16002 1.1423,0.51568 1.59597,0.94864 0.31289,0.37104 0.73376,0.35565 1.18023,0.38574 0,0 -7.50147,5.26727 -7.50147,5.26727 l 0,0 c -0.56419,-0.14104 -1.06232,-0.36656 -1.45698,-0.80978 -0.38378,-0.29214 -0.79674,-0.49482 -1.28878,-0.522 -0.6249,0.0261 -1.25001,-0.008 -1.87486,-0.0229 -0.85973,-0.0421 -1.71449,-0.13206 -2.56748,-0.24739 -0.95735,-0.13284 -1.91836,-0.17305 -2.87794,-0.28297 -0.67962,-0.11005 -1.34993,-0.20144 -2.04102,-0.1662 -0.77965,-0.0172 -1.55899,-0.0539 -2.33383,-0.14672 -1.07706,-0.10413 -2.15078,-0.28168 -3.23686,-0.24081 -1.06863,0.008 -2.1373,0.0127 -3.20581,0.0307 -0.71393,0.005 -1.42801,0.0177 -2.14173,-0.0104 -1.0651,-0.011 -2.1302,-0.0151 -3.19531,-0.0249 -1.31329,9.7e-4 -2.62654,-0.01 -3.93985,-0.005 -1.181008,0.018 -2.361613,0.006 -3.542734,0.007 -1.197355,0.0178 -2.399818,0.0242 -3.586789,0.20217 -1.002089,0.16667 -1.961819,0.47912 -2.946452,0.72264 -0.801723,0.15244 -1.602602,0.25811 -2.41581,0.32664 -0.821215,0.13818 -1.592555,0.40503 -2.390325,0.62147 0,0 7.321287,-5.54327 7.321287,-5.54327 z"
         id="path4327"
         style="opacity:1;fill:#9c95f0;fill-opacity:1;stroke:#303382;stroke-width:2;stroke-linecap:round;stroke-linejoin:round;stroke-miterlimit:4;stroke-dasharray:none;stroke-opacity:1" />
      <path
         inkscape:connector-curvature="0"
         d="m 77.749191,983.36887 c 0.570036,-0.21708 1.136972,-0.36354 1.668411,-0.66409 0.189798,-0.10642 0.453695,-0.0944 0.639576,-0.20754 0.05173,-0.0315 0.180856,-0.15859 0.128171,-0.12874 -2.586685,1.46558 -10.398409,5.76192 -7.735871,4.43914 2.769398,-1.37586 5.371335,-3.06579 8.057002,-4.59868 0.480861,-0.27916 0.854878,-0.32208 1.421764,-0.33826 0.387548,-0.057 0.794671,0.02 1.180929,-0.0374 0.32053,-0.0477 0.649383,-0.18401 0.970982,-0.24773 0.64719,-0.0959 1.303848,-0.1173 1.957261,-0.13034 0.615558,0.0338 1.179061,0.0146 1.70687,-0.32938 0.606048,-0.29225 1.28532,-0.32709 1.945912,-0.36065 0.782823,-0.0245 1.566213,-0.009 2.349351,-0.009 0.775705,-0.0163 1.529975,-0.23015 2.304217,-0.30651 0.814453,0.0452 1.194347,-0.21638 1.885396,-0.51218 0.654601,-0.21789 1.349527,-0.23594 2.032653,-0.25524 1.182398,0.041 2.365455,0.0342 3.548345,0.0389 1.18482,-0.0164 2.3609,-0.20564 3.54221,-0.3051 1.29071,-0.0954 2.58665,-0.0268 3.87951,-0.0216 1.42958,-0.0109 2.85917,-0.021 4.28866,-0.0407 0.97583,-0.004 1.95206,-0.0259 2.92782,-0.008 1.44927,0.0613 2.9,0.0351 4.34998,0.0275 1.13856,-0.004 2.27708,-0.0295 3.41565,-0.0282 0.91201,-0.004 1.82388,-0.007 2.73589,-0.008 1.17781,0.21328 2.3735,0.28853 3.56761,0.33504 0.97629,0.0426 1.95338,0.0297 2.93003,0.015 0.43585,0.0375 0.89025,-0.0623 1.32444,-0.006 0.005,6.8e-4 0.65686,0.1619 0.68955,0.16998 0.61076,0.16452 1.24445,0.11555 1.85365,0.27074 0.94826,0.20981 1.92297,0.24876 2.89036,0.27995 0.96356,0.16699 1.93418,0.2776 2.91052,0.32813 0.65081,0.0243 1.30254,0.032 1.95372,0.0205 0.41035,-0.0113 0.82094,-0.0221 1.23147,-0.0192 0.54017,-0.0372 0.63082,-0.0245 1.07156,0.33204 0.0689,0.0504 0.13774,0.1008 0.20662,0.15121 0,0 -7.72211,4.96667 -7.72211,4.96667 l 0,0 c -0.0556,-0.0289 -0.1111,-0.0578 -0.16665,-0.0867 -0.26243,-0.0169 -0.54589,0.11334 -0.83005,0.0454 -0.39824,0.005 -0.79676,-0.002 -1.19471,-0.0169 -0.65428,-0.0201 -1.31041,-0.0222 -1.9607,-0.10769 -0.94283,-0.11963 -1.8835,-0.2663 -2.83139,-0.33782 -1.00816,-0.0601 -2.01484,-0.14205 -3.01032,-0.31967 -0.64203,-0.0378 -1.27577,-0.12721 -1.90183,-0.27729 -0.62527,-0.086 -1.26342,0.002 -1.89314,-0.0387 -0.95588,-0.0265 -1.91155,-0.0662 -2.86642,-0.11743 -1.1987,-0.0893 -2.39674,-0.22784 -3.59832,-0.2498 -0.90453,-10e-4 -1.80891,-0.004 -2.71344,-0.008 -1.11266,0.001 -2.22527,-0.0243 -3.33792,-0.0282 -1.47522,-0.008 -2.95103,-0.0322 -4.42562,0.0273 -0.96708,0.0162 -1.93456,-0.004 -2.90167,-0.0112 -1.39129,-0.0221 -2.78273,-0.0348 -4.1742,-0.0364 -1.32399,0.0177 -2.646856,0.0649 -3.96694,0.17234 -1.175584,0.0959 -2.349755,0.25334 -3.532116,0.20482 -1.211259,0.004 -2.426482,-0.0194 -3.633375,0.1007 -0.648228,0.072 -1.281647,0.20124 -1.873336,0.48826 -0.648833,0.23737 -1.332969,0.22749 -2.012041,0.31462 -0.779023,0.1136 -1.556908,0.24983 -2.348496,0.20401 -0.774147,0.002 -1.550715,0.006 -2.319959,0.10368 -0.635799,0.10345 -1.233173,0.30113 -1.826297,0.5509 -0.625833,0.0952 -1.251722,0.0793 -1.883215,0.10431 -0.62411,0.0342 -1.246999,0.0862 -1.856202,0.23604 -0.717852,0.14244 -1.447763,0.10855 -2.165886,0.25483 -0.47049,0.14414 -0.881896,0.384 -1.320616,0.59148 20.266746,-11.64761 0.05093,-0.0284 -0.306993,0.17377 -0.219702,0.12411 -0.567213,0.0883 -0.762649,0.28879 -0.571603,0.20554 -1.159126,0.36638 -1.707643,0.63625 0,0 7.214035,-5.67284 7.214035,-5.67284 z"
         id="path4329"
         style="opacity:1;fill:#9c95f0;fill-opacity:1;stroke:#303382;stroke-width:2;stroke-linecap:round;stroke-linejoin:round;stroke-miterlimit:4;stroke-dasharray:none;stroke-opacity:1" />
      <path
         inkscape:connector-curvature="0"
         d="m 64.832796,1004.7618 c 0.09202,-0.026 0.187716,-0.042 0.276068,-0.079 0.94249,-0.3925 -0.373103,0.061 0.692897,-0.3183 0.374651,-0.1333 0.731984,-0.224 1.089532,-0.4011 0.771368,-0.2993 1.516735,-0.6575 2.289728,-0.9633 1.157941,-0.5626 2.381176,-0.9294 3.608537,-1.2995 1.206708,-0.3411 2.412528,-0.6912 3.599708,-1.096 1.33609,-0.3986 2.716638,-0.62721 4.071409,-0.95378 1.473156,-0.38343 2.941923,-0.71488 4.454773,-0.89694 1.106,-0.14562 2.191492,-0.36017 3.310231,-0.40515 1.306672,-0.19821 2.621574,-0.31098 3.941289,-0.36612 1.154554,0.0396 2.279759,-0.21405 3.422427,-0.32293 0.901188,-0.11846 1.81173,-0.11161 2.71852,-0.0943 1.31891,-0.14486 2.643095,-0.23711 3.968425,-0.29605 1.18843,-0.0407 2.37749,-0.0546 3.56645,-0.0709 1.42948,0.0427 2.85911,0.0428 4.28911,0.0406 1.31234,0.003 2.62451,-0.025 3.93679,-0.0287 0.96025,-0.008 1.92037,-0.0134 2.88063,-0.0161 1.26001,0.0395 2.5205,0.0313 3.78092,0.0328 1.1087,-0.014 2.21744,-0.0183 3.32618,-0.0278 0.81923,-0.006 1.6385,-0.0192 2.45773,-0.009 1.15179,0.24001 2.32874,0.29951 3.50117,0.34292 1.07124,0.0381 2.14332,0.0338 3.21492,0.0198 0.72264,-0.0135 1.44554,-0.004 2.16812,-0.0189 0.72957,-0.0143 1.45376,-0.0152 2.17439,0.10292 1.26358,0.18092 2.53964,0.23616 3.81428,0.26476 0.8924,0.0278 1.78507,0.005 2.6776,-0.002 0.62477,0.15939 1.25515,0.27826 1.89818,0.32389 0.66524,0.0519 1.33435,-0.0311 1.98572,0.12139 0.79022,0.17098 1.59812,0.22366 2.4039,0.25482 0.68686,-0.0585 1.32306,0.19036 1.99455,0.28719 0.48353,0.0621 0.97042,0.0709 1.45705,0.068 0.51585,-0.0548 0.65794,0.0369 1.03312,0.38502 0.0298,0.0317 0.0595,0.0634 0.0893,0.0951 0,0 -7.87005,4.85896 -7.87005,4.85896 l 0,0 c -0.008,0 -0.016,-0.01 -0.024,-0.011 -0.10129,-0.017 -0.0712,0.05 -0.15262,0.071 -0.16329,0.043 -0.36542,-0.042 -0.53153,-0.021 -0.4979,-0.036 -0.99012,-0.1184 -1.48171,-0.2032 -0.63419,-0.1254 -1.26037,-0.2246 -1.90986,-0.226 -0.82169,-0.069 -1.63595,-0.1904 -2.45378,-0.2929 -0.66684,0 -1.33571,-0.012 -1.99825,-0.095 -0.60563,-0.091 -1.20299,-0.2749 -1.81923,-0.2578 -0.87338,-0.011 -1.74569,-0.051 -2.61833,-0.087 -1.28211,-0.084 -2.56221,-0.1934 -3.84381,-0.2836 -0.73972,0 -1.47911,0.03 -2.2189,0.02 -0.7088,-0.013 -1.41791,-10e-5 -2.12669,-0.018 -1.05385,-0.025 -2.10772,-0.052 -3.16027,-0.1126 -1.18614,-0.082 -2.37194,-0.1962 -3.5593,-0.2419 -0.81063,0.01 -1.62128,0 -2.4319,-0.01 -1.08324,-0.01 -2.16646,-0.014 -3.24966,-0.028 -1.29057,0 -2.58118,-0.01 -3.87137,0.033 -0.9455,0 -1.89087,-0.01 -2.83636,-0.016 -1.28516,0 -2.5702,-0.033 -3.85542,-0.031 -1.46435,0 -2.928368,-0.01 -4.392194,0.039 -1.159666,-0.01 -2.319903,0 -3.47833,0.058 -1.346339,0.075 -2.686456,0.2142 -4.031645,0.2998 -0.895791,0.037 -1.791082,0.079 -2.682825,0.1765 -1.126543,0.1389 -2.25448,0.2224 -3.390123,0.2386 -1.323679,0.09 -2.639192,0.2488 -3.956294,0.4054 -1.08748,0.1303 -2.165282,0.3279 -3.257092,0.4223 -1.463396,0.2094 -2.888087,0.5928 -4.329343,0.9151 -1.384729,0.3189 -2.771274,0.6422 -4.122535,1.0857 -1.185878,0.365 -2.377513,0.7101 -3.569061,1.0561 -1.243253,0.3922 -2.439381,0.894 -3.627673,1.429 -0.775921,0.3486 -1.559215,0.6768 -2.347401,0.9953 -0.718394,0.236 -1.41062,0.5461 -2.077059,0.9016 0,0 7.180971,-5.7441 7.180971,-5.7441 z"
         id="path4331"
         style="opacity:1;fill:#9c95f0;fill-opacity:1;stroke:#303382;stroke-width:2;stroke-linecap:round;stroke-linejoin:round;stroke-miterlimit:4;stroke-dasharray:none;stroke-opacity:1" />
      <path
         inkscape:connector-curvature="0"
         d="m 113.73473,942.55376 c 0.0998,0.83946 0.19998,1.6781 0.26237,2.52135 -0.005,0.75553 0.12975,1.49306 0.24902,2.23529 0.17948,0.73706 0.32794,1.48129 0.49883,2.22041 0.16771,1.2328 0.2882,2.47063 0.44452,3.70554 0.17875,1.12813 0.17349,2.27275 0.28091,3.40696 0.0805,1.00158 0.33708,1.97444 0.49064,2.96479 0.13687,1.15829 0.17675,2.32581 0.19342,3.49124 0.0231,1.00793 0.0216,2.01607 0.0333,3.02419 0.0184,0.83057 0.002,1.66103 0.003,2.49164 -0.003,0.93288 -0.008,1.86588 -0.0193,2.79874 -0.0177,1.07125 -0.01,2.14261 0.006,3.21382 -0.006,0.89552 0.009,1.791 0.0176,2.68645 0.004,0.82451 0.002,1.64925 -0.0113,2.4737 0.0329,1.15341 0.17104,2.30002 0.2561,3.45033 0.0745,0.82627 0.10569,1.65383 0.12467,2.48285 0.009,0.67528 0.003,1.35065 4.3e-4,2.02596 -0.005,0.7235 0.004,1.44708 -0.0125,2.17044 -0.003,0.93508 -0.0261,1.86962 -0.0202,2.80474 -0.0332,1.00058 -0.1508,1.98882 -0.47284,2.93831 -0.24772,0.87138 -0.67156,1.64112 -1.20755,2.36426 -0.53818,0.65236 -1.04307,1.3181 -1.46488,2.05203 -0.48668,0.9085 -0.70995,1.9234 -1.01349,2.901 -0.29211,0.9908 -0.63708,1.9657 -1.03154,2.9201 -0.37159,0.8328 -0.8431,1.6191 -1.31671,2.3974 -0.60232,0.9191 -1.35466,1.7234 -2.02104,2.595 -0.96495,1.1991 -1.9356,2.3943 -2.91311,3.5835 -0.61732,0.8068 -1.38651,1.471 -2.0758,2.2116 -0.50974,0.6001 -0.93459,1.2605 -1.36539,1.9171 -0.55165,0.7059 -1.09854,1.4039 -1.59645,2.1501 -0.684524,1.1489 -1.361409,2.2944 -2.151862,3.3749 -0.763042,0.9233 -1.660192,1.7219 -2.533493,2.5376 -0.668115,0.6832 -1.401155,1.2896 -2.137709,1.8958 -3.026939,2.2836 -7.457249,4.4531 -10.19335,6.0159 -1.20882,0.4219 -2.378201,0.962 -3.522602,1.5344 -3.018069,1.7748 0.893028,-0.5275 6.73878,-3.8643 0.151805,-0.087 -0.298371,0.1824 -0.443576,0.2797 -0.422801,0.2833 -0.809432,0.6065 -1.195452,0.9368 -0.755645,0.7078 -1.608889,1.2988 -2.448412,1.9008 -3.327946,2.2311 -6.870194,4.1033 -10.342423,6.1034 0,0 7.043346,-5.684 7.043346,-5.684 l 0,0 c -13.448634,7.7801 -7.970564,4.7635 -5.091608,2.8561 0.867394,-0.5143 1.649762,-1.1633 2.463437,-1.7579 2.950312,-2.7951 6.627688,-4.6522 10.311453,-6.374 1.184552,-0.5302 2.378081,-1.041 3.554222,-1.5877 -13.357294,7.7383 -8.241768,4.7646 -5.271483,3.0378 0.722499,-0.6288 1.506593,-1.1805 2.179428,-1.8646 0.880514,-0.8236 1.788097,-1.6183 2.64947,-2.4621 0.889378,-0.9442 1.520259,-2.0829 2.117717,-3.2285 0.444259,-0.7638 0.889387,-1.5322 1.507206,-2.1712 0.491195,-0.6364 0.877374,-1.3403 1.371199,-1.9746 0.612125,-0.8817 1.474154,-1.497 2.187028,-2.2883 1.006702,-1.1497 1.95905,-2.3441 2.921581,-3.5304 0.631573,-0.8511 1.237873,-1.713 1.949513,-2.501 0.51827,-0.7283 0.93765,-1.5178 1.3909,-2.2871 0.47074,-0.8916 0.75497,-1.8604 1.10996,-2.8017 0.27468,-1.0199 0.57991,-2.0386 0.90331,-3.0424 0.36985,-0.8094 0.79677,-1.5597 1.39072,-2.222 0.55233,-0.6256 1.09488,-1.2681 1.31696,-2.09227 0.10698,-0.26279 0.23796,-0.51601 0.33304,-0.78333 0.21347,-0.60014 0.20402,-1.2542 0.30577,-1.8765 0.006,-0.92833 -0.0172,-1.85607 -0.0201,-2.78435 -0.0165,-0.7198 -0.007,-1.43983 -0.0104,-2.15977 -9.2e-4,-0.67309 -0.003,-1.3462 0.001,-2.01928 0.009,-0.8296 0.0122,-1.65952 -0.008,-2.48897 -0.0514,-1.1628 -0.14789,-2.32263 -0.32873,-3.47313 -0.0131,-0.82059 -0.0154,-1.64149 -0.0113,-2.46214 0.008,-0.90142 0.0239,-1.80287 0.0176,-2.70435 0.0161,-1.07336 0.0242,-2.14687 0.006,-3.22027 -0.0108,-0.92653 -0.0166,-1.8532 -0.0188,-2.77975 0.002,-0.833 -0.0132,-1.6659 0.008,-2.49882 0.0147,-1.01264 0.0194,-2.02525 0.0238,-3.03797 -0.0143,-1.12374 -0.0134,-2.25149 -0.16115,-3.3678 -0.1505,-1.00577 -0.41562,-1.98834 -0.50976,-3.00266 -0.12896,-1.13534 -0.0668,-2.28587 -0.21877,-3.42125 -0.14209,-1.19165 -0.2855,-2.38561 -0.48784,-3.56763 -0.18744,-0.75926 -0.35847,-1.52031 -0.56076,-2.27621 -0.10649,-0.77233 -0.30158,-1.5329 -0.26634,-2.318 -0.0347,-0.79341 -0.0756,-1.59633 -0.28612,-2.36607 0,0 8.09831,-4.32972 8.09831,-4.32972 z"
         id="path4333"
         style="opacity:1;fill:#9c95f0;fill-opacity:1;stroke:#303382;stroke-width:2;stroke-linecap:round;stroke-linejoin:round;stroke-miterlimit:4;stroke-dasharray:none;stroke-opacity:1" />
      <path
         inkscape:connector-curvature="0"
         d="m 115.16341,1005.1336 c -0.0573,0.8216 -0.0408,1.6467 -0.0533,2.47 0.0653,1.3637 0.17131,2.7234 0.20833,4.0888 0.0973,1.6247 0.38439,3.2287 0.6346,4.8346 0.25484,1.8601 0.73031,3.6796 1.16006,5.5045 0.2965,1.3518 0.66055,2.6862 1.0091,4.025 0.28883,1.2902 0.62788,2.5689 0.94959,3.8514 0.28568,1.3407 0.9187,2.4899 1.71155,3.5878 0.67167,0.9441 1.5966,1.6399 2.47877,2.3685 0.71376,0.5545 1.35592,1.1804 2.115,1.6747 0.64906,0.5175 1.37913,0.8815 2.16194,1.1446 1.0073,0.3866 2.0402,0.7162 3.07631,1.0195 0.91202,0.2276 1.80559,0.518 2.70065,0.8025 0.6225,0.1864 1.2679,0.2338 1.91337,0.2481 0.60934,0.043 1.19174,0.2468 1.80565,0.3095 0.46895,0.2235 0.95595,0.3364 1.4685,0.3846 0.32651,6e-4 0.63033,0.1732 0.93351,0.2868 0,0 -7.61673,5.1454 -7.61673,5.1454 l 0,0 c -0.27595,-0.092 -0.5467,-0.1203 -0.83314,-0.1614 -0.48066,-0.1158 -0.93658,-0.3217 -1.42705,-0.3874 -0.58659,-0.1082 -1.16058,-0.2716 -1.76299,-0.2527 -0.68577,-0.074 -1.35527,-0.2321 -2.00532,-0.4652 -0.86795,-0.2982 -1.7493,-0.5578 -2.62575,-0.8297 -1.05236,-0.3377 -2.118,-0.6385 -3.14895,-1.039 -0.82848,-0.3424 -1.6029,-0.7688 -2.31139,-1.3231 -0.73593,-0.561 -1.40459,-1.1935 -2.12954,-1.7686 -0.89657,-0.8083 -1.82869,-1.599 -2.52156,-2.5989 -0.8338,-1.1991 -1.52978,-2.442 -1.83761,-3.8892 -0.34221,-1.2746 -0.76572,-2.528 -0.98858,-3.8331 -0.34395,-1.3606 -0.70184,-2.717 -0.96609,-4.0966 -0.3305,-1.8614 -0.78712,-3.6977 -1.13679,-5.5557 -0.28915,-1.6314 -0.63805,-3.256 -0.7163,-4.9165 -0.0737,-1.3526 -0.16965,-2.7038 -0.3765,-4.0436 -0.0124,-0.8051 0.005,-1.6123 -0.0533,-2.4156 0,0 8.18397,-4.17 8.18397,-4.17 z"
         id="path4335"
         style="opacity:1;fill:#9c95f0;fill-opacity:1;stroke:#303382;stroke-width:2;stroke-linecap:round;stroke-linejoin:round;stroke-miterlimit:4;stroke-dasharray:none;stroke-opacity:1" />
    </g>
    <path
       style="fill:#93560e;fill-opacity:1;fill-rule:evenodd;stroke:#000000;stroke-width:2;stroke-linecap:butt;stroke-linejoin:miter;stroke-miterlimit:4;stroke-dasharray:none;stroke-opacity:1"
       d="m 92.431664,1012.6432 13.749996,10.3572 c 0,0 0.89286,5.3571 -1.96428,9.4642 -2.85714,4.1072 -6.964287,4.6429 -16.07143,7.3215 -8.581171,2.5238 -30.357143,5.3571 -36.785714,5 -6.428572,-0.3572 -12.321429,-4.6429 -12.321429,-4.6429 0,0 7.320067,2.6796 14.464286,-6.9643 7.144219,-9.6439 18.749999,-11.6071 26.607142,-12.8571 7.857143,-1.25 12.321429,-7.6786 12.321429,-7.6786 z"
       id="path4356"
       inkscape:connector-curvature="0"
       sodipodi:nodetypes="ccsscczsc" />
    <path
       style="fill:#9b7237;fill-opacity:1;fill-rule:evenodd;stroke:#6c5014;stroke-width:2;stroke-linecap:butt;stroke-linejoin:miter;stroke-miterlimit:4;stroke-dasharray:none;stroke-opacity:1"
       d="m 103.7958,1000.7884 13.24665,10.0657 c 0,0 10.47122,-5.9428 25.17984,-23.51679 14.70863,-17.57395 45.161,-83.21504 45.161,-83.21504 2.63097,-6.36274 -3.29328,-9.7479 -7.07106,-5.3033 0,0 -53.17133,63.62258 -61.00001,73.21903 -7.82869,9.59645 -15.51642,28.7504 -15.51642,28.7504 z"
       id="path4360"
       inkscape:connector-curvature="0"
       sodipodi:nodetypes="cczcczc" />
    <path
       style="fill:url(#linearGradient4368);fill-opacity:1;fill-rule:evenodd;stroke:#000000;stroke-width:2;stroke-linecap:butt;stroke-linejoin:miter;stroke-miterlimit:4;stroke-dasharray:none;stroke-opacity:1"
       d="m 92.074522,1013.0004 13.928568,10.3571 c 0,0 6.7939,-1.7756 9.64286,-5.2678 2.76786,-3.3929 1.69643,-7.3215 1.69643,-7.3215 l -13.83929,-9.9107 c 0,0 -5.714282,-0.2681 -8.214282,2.2322 -2.5,2.5 -3.214286,9.9107 -3.214286,9.9107 z"
       id="path4358"
       inkscape:connector-curvature="0"
       sodipodi:nodetypes="ccsccsc" />
  </g>
</svg>
