<?xml version="1.0" encoding="UTF-8" standalone="no"?>
<!-- Created with Inkscape (http://www.inkscape.org/) -->

<svg
   xmlns:dc="http://purl.org/dc/elements/1.1/"
   xmlns:cc="http://creativecommons.org/ns#"
   xmlns:rdf="http://www.w3.org/1999/02/22-rdf-syntax-ns#"
   xmlns:svg="http://www.w3.org/2000/svg"
   xmlns="http://www.w3.org/2000/svg"
   xmlns:sodipodi="http://sodipodi.sourceforge.net/DTD/sodipodi-0.dtd"
   xmlns:inkscape="http://www.inkscape.org/namespaces/inkscape"
   width="192"
   height="192"
   viewBox="0 0 192.00001 192.00001"
   id="svg2"
   version="1.1"
   inkscape:version="0.91 r13725"
   sodipodi:docname="icon.svg">
  <defs
     id="defs4">
    <inkscape:path-effect
       effect="bend_path"
       id="path-effect4225"
       is_visible="true"
       bendpath="m 4.5000005,82.50001 160.0000195,0"
       prop_scale="1.21"
       scale_y_rel="false"
       vertical="false" />
  </defs>
  <sodipodi:namedview
     id="base"
     pagecolor="#ffffff"
     bordercolor="#666666"
     borderopacity="1.0"
     inkscape:pageopacity="0.0"
     inkscape:pageshadow="2"
     inkscape:zoom="2.8284271"
     inkscape:cx="68.261169"
     inkscape:cy="81.029791"
     inkscape:document-units="px"
     inkscape:current-layer="layer3"
     showgrid="true"
     units="px"
     inkscape:window-width="1600"
     inkscape:window-height="836"
     inkscape:window-x="0"
     inkscape:window-y="27"
     inkscape:window-maximized="1"
     inkscape:snap-grids="true">
    <inkscape:grid
       type="xygrid"
       id="grid4237" />
  </sodipodi:namedview>
  <metadata
     id="metadata7">
    <rdf:RDF>
      <cc:Work
         rdf:about="">
        <dc:format>image/svg+xml</dc:format>
        <dc:type
           rdf:resource="http://purl.org/dc/dcmitype/StillImage" />
        <dc:title />
      </cc:Work>
    </rdf:RDF>
  </metadata>
  <g
     inkscape:groupmode="layer"
     id="layer3"
     inkscape:label="Ebene 2">
    <rect
       style="opacity:1;fill:#7397bf;fill-opacity:1;stroke:none;stroke-width:1.00000012;stroke-linecap:round;stroke-linejoin:round;stroke-miterlimit:4;stroke-dasharray:none;stroke-opacity:1"
       id="rect4235"
       width="188.00002"
       height="188.00002"
       x="2.0000002"
       y="2"
       ry="27.000002"
       rx="0" />
    <path
       style="fill:none;fill-rule:evenodd;stroke:#000000;stroke-width:2.00000012;stroke-linecap:butt;stroke-linejoin:miter;stroke-miterlimit:4;stroke-dasharray:4.00000024,4.00000024;stroke-dashoffset:5.20000012;stroke-opacity:1"
       d="M 95.01295,2.0464805 94.968756,190.01962"
       id="path4142"
       inkscape:connector-curvature="0"
       sodipodi:nodetypes="cc" />
    <path
       style="fill:none;fill-rule:evenodd;stroke:#000000;stroke-width:2.00000012;stroke-linecap:butt;stroke-linejoin:miter;stroke-opacity:1;stroke-miterlimit:4;stroke-dasharray:4.00000024,4.00000024;stroke-dashoffset:5.20000012"
       d="m 2.0000001,96.000006 188.0128599,0"
       id="path4144"
       inkscape:connector-curvature="0" />
  </g>
  <g
     inkscape:groupmode="layer"
     id="layer4"
     inkscape:label="Ebene 3">
    <g
       style="font-style:normal;font-variant:normal;font-weight:normal;font-stretch:normal;font-size:180.00001526px;line-height:100%;font-family:UnGungseo;-inkscape-font-specification:UnGungseo;text-align:start;letter-spacing:0px;word-spacing:0px;writing-mode:lr-tb;text-anchor:start;display:inline;fill:#626262;fill-opacity:1;stroke:none;stroke-width:1px;stroke-linecap:butt;stroke-linejoin:miter;stroke-opacity:1"
       id="text4136-3"
       transform="translate(4.5965226,-860.08523)">
      <path
         d="m 104.84975,907.25852 18.9,-2.7 q 0.9,-1.26 0.9,-5.04 0,-2.88 -1.8,-7.56 -1.62,-4.86 -1.62,-7.02 0,-1.8 2.34,-1.8 4.5,0 10.62,2.34 6.30001,2.34 6.30001,5.94 0,1.62 -2.88001,10.26 3.24001,-0.9 6.30001,-0.9 2.88,0 7.02,1.62 4.32,1.44 4.32,3.78 0,2.52 -8.46,3.06 -8.46,0.36 -10.44001,-0.18 -0.36,3.06 -2.52,10.08 -1.98,6.84 -3.42,8.1 -2.34,2.16 -14.04,1.44 1.08,0.9 1.98,1.62 0.9,0.72 1.44,1.44 0.72,0.72 1.08,1.62 0.54,0.9 0.72,1.98 0.18,1.08 0.18,2.7 l 12.78,-2.7 q 0.72,-0.18 3.78001,-1.62 3.06,-1.62 4.32,-1.62 2.88,0 8.1,4.68 5.4,4.68 5.4,7.38 0,0.9 -1.08,2.34 -1.26,1.62 -3.78,3.96 -2.52,2.34 -3.6,3.42 -0.18,0.18 -2.16,2.88 -1.8,2.7 -3.24,3.78 -1.62,1.08 -3.78,1.44 -2.16001,0.36 -5.94001,0.18 -3.6,-0.36 -4.14,-0.36 -2.16,0 -6.84,0.36 l -0.36,10.8 q 1.62,-0.36 5.76,-1.26 4.32,-1.08 7.92,-1.62 3.78001,-0.72 6.30001,-0.72 2.34,0 6.12,1.44 3.78,1.44 3.78,3.42 0,1.44 -4.68,2.34 -4.5,0.9 -9.72001,1.26 -5.22,0.18 -10.44,0.36 l -5.04,0 -1.08,11.16001 q 5.58,0 16.2,-1.44 10.80001,-1.44 15.66001,-1.44 4.14,0 10.8,2.7 6.84,2.52 6.84,5.94 0,2.7 -4.14,2.7 l -7.56,-1.08 q -7.56,-1.26 -26.46001,-1.26 -3.24,0 -9.72,0.36 15.84,18.35997 31.86001,27.17997 l 2.34,1.26 q 2.34,1.08 4.68,2.34 2.52,1.44 4.68,2.88 2.16,1.62 2.16,2.34 0,2.7 -6.84,2.7 -8.82,0 -11.88,-1.26 -5.04,-1.98 -11.52001,-9 -6.48,-6.84 -10.98,-13.68 -4.5,-6.84 -8.64,-12.41997 -9.54,22.67997 -33.48,33.11997 -10.08,4.32 -13.860001,4.32 l -0.18,0 -0.9,-0.72 q 13.680001,-8.1 22.500002,-16.74 8.819999,-8.64 12.959999,-21.05997 -2.52,0.54 -7.559998,1.26 -4.860001,0.54 -6.840001,0.9 -0.54,0.18 -7.020001,1.97997 -6.48,1.62 -7.92,1.62 -2.880001,0 -7.920001,-1.62 -5.04,-1.79997 -5.04,-4.13997 0,-0.18 0,-0.18 0.18,0 0.18,-0.18 0.18,-0.54 1.08,-0.9 1.08,-0.54 2.34,-0.72 1.44,-0.36 2.52,-0.36 1.26,-0.18 2.7,-0.18 1.620001,-0.18 1.800001,-0.18 3.24,-0.36 9.54,-0.9 6.480001,-0.72 9.720001,-1.08 9.359999,-1.08 14.039999,-1.98 0.9,-5.04 1.08,-10.26001 -1.98,0.36 -5.94,1.44001 -3.959998,0.9 -7.379999,1.44 -3.24,0.54 -5.94,0.54 -1.98,0 -5.940001,-1.26 -3.96,-1.44 -3.96,-3.06001 0,-1.8 6.660001,-2.52 2.52,-0.36 7.2,-0.72 4.680001,-0.36 7.200001,-0.72 l 8.819998,-1.08 0.36,-10.44 -13.679999,1.8 q -0.36,0.36 -1.62,2.52 -1.08,2.16 -2.52,2.16 -2.52,0 -4.68,-4.5 -2.160001,-4.5 -3.780001,-10.62 -1.62,-6.12 -2.34,-7.38 l -4.32,-7.74 q 0,-1.08 2.52,-1.08 2.34,0 6.48,1.62 4.140001,1.62 6.300001,1.62 3.24,0 9.719999,-0.9 6.48,-0.9 7.2,-0.9 -0.18,-0.54 -0.72,-3.06 -0.54,-2.7 -1.26,-4.5 -0.72,-1.98 -1.44,-2.52 -0.36,0 -1.26,0 -0.72,-0.18 -1.08,-0.18 -3.419998,0 -5.939999,-5.22 -2.52,-5.4 -2.52,-9.36 -1.08,0 -3.6,0.9 -2.52,0.72 -3.78,0.72 -3.060001,0 -7.740001,-1.44 -4.5,-1.44 -4.5,-3.6 0,-3.06 17.820001,-3.06 -0.36,-3.6 -4.14,-10.44 -3.600001,-7.02 -3.600001,-7.56 0,-1.26 2.880001,-1.26 9.720001,0 13.859999,3.78 4.14,3.78 4.14,13.68 z m -73.800004,-13.14 q 8.460001,0.54 17.280001,5.76 8.820001,5.04 8.820001,12.78 0,5.58 -5.58,5.58 -4.140001,0 -8.100001,-5.04 -3.78,-5.22 -5.4,-8.46 -0.18,-0.18 -2.340001,-2.7 -2.16,-2.7 -3.42,-4.68 -1.26,-1.98 -1.26,-3.24 z m 93.060004,16.2 q -5.4,0.54 -18.72,2.52 l -0.18,11.16 q 2.7,0 9.54,-0.54 6.84,-0.72 7.38,-1.44 0.72,-0.9 1.98,-11.7 z m -104.220005,23.94 q 8.460001,0 18.360002,5.4 9.9,5.22 9.9,12.96 0,5.58 -6.3,5.58 -2.7,0 -5.400001,-2.7 -2.16,-1.98 -5.22,-6.48 -2.88,-4.5 -4.14,-6.12 -0.54,-0.72 -2.520001,-2.52 -1.98,-1.8 -3.42,-3.24 -1.26,-1.62 -1.26,-2.88 z m 101.880005,22.68 q 12.06,-1.26 12.96,-2.16 0.72,-1.08 1.8,-4.68 1.26001,-3.6 1.26001,-5.04 0,-3.24 -3.78001,-3.24 -0.54,0 -11.88,1.62 -0.36,0.72 -0.36,1.44 l 0,12.06 z m -13.5,-11.7 q -5.04,0.54 -16.559999,2.34 l 1.98,12.6 14.579999,-1.62 q 0.36,-0.54 0.36,-1.8 l -0.36,-11.52 z m -48.420002,19.62 0.72,0.18 q -1.8,14.58 -5.94,28.44001 -0.72,2.52 -2.52,7.37997 -1.8,4.86 -3.060001,9 -1.08,3.96 -1.44,7.56 l -1.44,14.22 q -0.18,1.08 -1.62,1.8 -1.26,0.72 -2.34,0.72 -2.34,0 -4.68,-1.98 -2.160001,-1.98 -3.240001,-3.96 -1.08,-1.8 -3.06,-5.58 -1.8,-3.78 -1.98,-4.14 -2.7,-5.4 -2.7,-5.94 0,-0.54 0.9,-0.54 0.54,0 1.8,0.36 1.26,0.36 1.8,0.36 3.78,0 7.380001,-6.3 8.46,-13.85997 21.420001,-41.57998 z"
         id="path4141-8"
         inkscape:connector-curvature="0"
         style="fill:#626262;fill-opacity:1" />
    </g>
  </g>
  <g
     inkscape:label="Ebene 1"
     inkscape:groupmode="layer"
     id="layer1"
     transform="translate(0,-860.36222)"
     style="display:inline">
    <g
       style="font-style:normal;font-variant:normal;font-weight:normal;font-stretch:normal;font-size:180.00001526px;line-height:100%;font-family:UnGungseo;-inkscape-font-specification:UnGungseo;text-align:start;letter-spacing:0px;word-spacing:0px;writing-mode:lr-tb;text-anchor:start;fill:#ffffff;fill-opacity:1;stroke:none;stroke-width:1px;stroke-linecap:butt;stroke-linejoin:miter;stroke-opacity:1"
       id="text4136"
       transform="translate(2.1213205,-3.1819807)">
      <path
         d="m 104.84975,907.25852 18.9,-2.7 q 0.9,-1.26 0.9,-5.04 0,-2.88 -1.8,-7.56 -1.62,-4.86 -1.62,-7.02 0,-1.8 2.34,-1.8 4.5,0 10.62,2.34 6.30001,2.34 6.30001,5.94 0,1.62 -2.88001,10.26 3.24001,-0.9 6.30001,-0.9 2.88,0 7.02,1.62 4.32,1.44 4.32,3.78 0,2.52 -8.46,3.06 -8.46,0.36 -10.44001,-0.18 -0.36,3.06 -2.52,10.08 -1.98,6.84 -3.42,8.1 -2.34,2.16 -14.04,1.44 1.08,0.9 1.98,1.62 0.9,0.72 1.44,1.44 0.72,0.72 1.08,1.62 0.54,0.9 0.72,1.98 0.18,1.08 0.18,2.7 l 12.78,-2.7 q 0.72,-0.18 3.78001,-1.62 3.06,-1.62 4.32,-1.62 2.88,0 8.1,4.68 5.4,4.68 5.4,7.38 0,0.9 -1.08,2.34 -1.26,1.62 -3.78,3.96 -2.52,2.34 -3.6,3.42 -0.18,0.18 -2.16,2.88 -1.8,2.7 -3.24,3.78 -1.62,1.08 -3.78,1.44 -2.16001,0.36 -5.94001,0.18 -3.6,-0.36 -4.14,-0.36 -2.16,0 -6.84,0.36 l -0.36,10.8 q 1.62,-0.36 5.76,-1.26 4.32,-1.08 7.92,-1.62 3.78001,-0.72 6.30001,-0.72 2.34,0 6.12,1.44 3.78,1.44 3.78,3.42 0,1.44 -4.68,2.34 -4.5,0.9 -9.72001,1.26 -5.22,0.18 -10.44,0.36 l -5.04,0 -1.08,11.16001 q 5.58,0 16.2,-1.44 10.80001,-1.44 15.66001,-1.44 4.14,0 10.8,2.7 6.84,2.52 6.84,5.94 0,2.7 -4.14,2.7 l -7.56,-1.08 q -7.56,-1.26 -26.46001,-1.26 -3.24,0 -9.72,0.36 15.84,18.35997 31.86001,27.17997 l 2.34,1.26 q 2.34,1.08 4.68,2.34 2.52,1.44 4.68,2.88 2.16,1.62 2.16,2.34 0,2.7 -6.84,2.7 -8.82,0 -11.88,-1.26 -5.04,-1.98 -11.52001,-9 -6.48,-6.84 -10.98,-13.68 -4.5,-6.84 -8.64,-12.41997 -9.54,22.67997 -33.48,33.11997 -10.08,4.32 -13.860001,4.32 l -0.18,0 -0.9,-0.72 q 13.680001,-8.1 22.500002,-16.74 8.819999,-8.64 12.959999,-21.05997 -2.52,0.54 -7.559998,1.26 -4.860001,0.54 -6.840001,0.9 -0.54,0.18 -7.020001,1.97997 -6.48,1.62 -7.92,1.62 -2.880001,0 -7.920001,-1.62 -5.04,-1.79997 -5.04,-4.13997 0,-0.18 0,-0.18 0.18,0 0.18,-0.18 0.18,-0.54 1.08,-0.9 1.08,-0.54 2.34,-0.72 1.44,-0.36 2.52,-0.36 1.26,-0.18 2.7,-0.18 1.620001,-0.18 1.800001,-0.18 3.24,-0.36 9.54,-0.9 6.480001,-0.72 9.720001,-1.08 9.359999,-1.08 14.039999,-1.98 0.9,-5.04 1.08,-10.26001 -1.98,0.36 -5.94,1.44001 -3.959998,0.9 -7.379999,1.44 -3.24,0.54 -5.94,0.54 -1.98,0 -5.940001,-1.26 -3.96,-1.44 -3.96,-3.06001 0,-1.8 6.660001,-2.52 2.52,-0.36 7.2,-0.72 4.680001,-0.36 7.200001,-0.72 l 8.819998,-1.08 0.36,-10.44 -13.679999,1.8 q -0.36,0.36 -1.62,2.52 -1.08,2.16 -2.52,2.16 -2.52,0 -4.68,-4.5 -2.160001,-4.5 -3.780001,-10.62 -1.62,-6.12 -2.34,-7.38 l -4.32,-7.74 q 0,-1.08 2.52,-1.08 2.34,0 6.48,1.62 4.140001,1.62 6.300001,1.62 3.24,0 9.719999,-0.9 6.48,-0.9 7.2,-0.9 -0.18,-0.54 -0.72,-3.06 -0.54,-2.7 -1.26,-4.5 -0.72,-1.98 -1.44,-2.52 -0.36,0 -1.26,0 -0.72,-0.18 -1.08,-0.18 -3.419998,0 -5.939999,-5.22 -2.52,-5.4 -2.52,-9.36 -1.08,0 -3.6,0.9 -2.52,0.72 -3.78,0.72 -3.060001,0 -7.740001,-1.44 -4.5,-1.44 -4.5,-3.6 0,-3.06 17.820001,-3.06 -0.36,-3.6 -4.14,-10.44 -3.600001,-7.02 -3.600001,-7.56 0,-1.26 2.880001,-1.26 9.720001,0 13.859999,3.78 4.14,3.78 4.14,13.68 z m -73.800004,-13.14 q 8.460001,0.54 17.280001,5.76 8.820001,5.04 8.820001,12.78 0,5.58 -5.58,5.58 -4.140001,0 -8.100001,-5.04 -3.78,-5.22 -5.4,-8.46 -0.18,-0.18 -2.340001,-2.7 -2.16,-2.7 -3.42,-4.68 -1.26,-1.98 -1.26,-3.24 z m 93.060004,16.2 q -5.4,0.54 -18.72,2.52 l -0.18,11.16 q 2.7,0 9.54,-0.54 6.84,-0.72 7.38,-1.44 0.72,-0.9 1.98,-11.7 z m -104.220005,23.94 q 8.460001,0 18.360002,5.4 9.9,5.22 9.9,12.96 0,5.58 -6.3,5.58 -2.7,0 -5.400001,-2.7 -2.16,-1.98 -5.22,-6.48 -2.88,-4.5 -4.14,-6.12 -0.54,-0.72 -2.520001,-2.52 -1.98,-1.8 -3.42,-3.24 -1.26,-1.62 -1.26,-2.88 z m 101.880005,22.68 q 12.06,-1.26 12.96,-2.16 0.72,-1.08 1.8,-4.68 1.26001,-3.6 1.26001,-5.04 0,-3.24 -3.78001,-3.24 -0.54,0 -11.88,1.62 -0.36,0.72 -0.36,1.44 l 0,12.06 z m -13.5,-11.7 q -5.04,0.54 -16.559999,2.34 l 1.98,12.6 14.579999,-1.62 q 0.36,-0.54 0.36,-1.8 l -0.36,-11.52 z m -48.420002,19.62 0.72,0.18 q -1.8,14.58 -5.94,28.44001 -0.72,2.52 -2.52,7.37997 -1.8,4.86 -3.060001,9 -1.08,3.96 -1.44,7.56 l -1.44,14.22 q -0.18,1.08 -1.62,1.8 -1.26,0.72 -2.34,0.72 -2.34,0 -4.68,-1.98 -2.160001,-1.98 -3.240001,-3.96 -1.08,-1.8 -3.06,-5.58 -1.8,-3.78 -1.98,-4.14 -2.7,-5.4 -2.7,-5.94 0,-0.54 0.9,-0.54 0.54,0 1.8,0.36 1.26,0.36 1.8,0.36 3.78,0 7.380001,-6.3 8.46,-13.85997 21.420001,-41.57998 z"
         id="path4141"
         inkscape:connector-curvature="0"
         style="fill:#ffffff;fill-opacity:1" />
    </g>
  </g>
</svg>
